<svg id="Layer_1" data-name="Layer 1" xmlns="http://www.w3.org/2000/svg" viewBox="0 0 107.72 113.12"><defs><style>.cls-1{fill:#30354f;}</style></defs><path class="cls-1" d="M105.86,45.12a13,13,0,0,0-1.87-.28c-2.06-.19-4.13-.36-6-.52v-10a21.09,21.09,0,0,0,3.48,1.44c.87.25,1.49.18.36-.55-2.65-1.9-4-3.76-6.16-5.79a35.76,35.76,0,0,0,3.86-.1,5.31,5.31,0,0,0,2.2-.53c-.58-.18-1.84-.7-2.14-.85-1.62-.78-2.58-1.39-4.16-2.24a26.66,26.66,0,0,1-3.38-2.31A26.68,26.68,0,0,0,87.6,11.81,26.9,26.9,0,0,0,85.17,9c-.54-.58-.73-.53-.41.25a18.43,18.43,0,0,1,1,3c-.67-.59-1.38-1.11-2-1.74a26.56,26.56,0,0,0-9.2-6.32A59.34,59.34,0,0,0,51.56,0C41.12.05,31,1.29,21.75,6.78c-5.09,3-9.77,6.45-12.94,11.54C7.09,21.07,5.68,24,4.13,26.86a1.59,1.59,0,0,0-.12.27C1.28,35.77-.69,44.51.23,53.66c.65,6.47,2.84,12.51,5.2,18.49,1.9,4.78,4.35,9.21,8.37,12.66a16.64,16.64,0,0,0,12.11,4.11c0,.1.12.32.21.55,2.06,5.27,4.75,10.1,9.15,13.86,9.13,7.79,19.8,10.5,31.55,9.64,4.43-.33,8.49-1.74,11.67-5a52.62,52.62,0,0,0,5.17-5.9A49.74,49.74,0,0,0,88,94.68c2.51-5.19,3.4-10.84,4.07-16.51.12-1,.39-1.44,1.37-1.65A11.45,11.45,0,0,0,102.09,69c1-2.71,2.09-9.78,2.85-12.59a8.85,8.85,0,0,1,1.57-3.53,49.09,49.09,0,0,0,1.19-5.61C107.85,46.1,107,45.39,105.86,45.12ZM40.64,36.5c.31-.89.81-.8,1.44-.73A35.81,35.81,0,0,0,54,35.46a50.39,50.39,0,0,1,6.72-1.29,34.65,34.65,0,0,1,7.55,0,44.62,44.62,0,0,0,18.08-1c.61-.17,1.22-.28,1.91-.44A23.57,23.57,0,0,1,91,44.45c-2.72.42-5.42.7-8.06,1.29-3.92.89-7.8,2-11.71,3a4.35,4.35,0,0,1-2.11.13,131.69,131.69,0,0,0-31.68-4.15C38.53,42,39.65,39.26,40.64,36.5ZM23.75,70.77c0,2.29-.37,2.73-2.68,3a6.94,6.94,0,0,1-6.68-3.08,18.91,18.91,0,0,1-3-15.94,8.81,8.81,0,0,1,1.46-3c1.74-2.37,4-2.43,6-.29a14.27,14.27,0,0,1,3.7,7.47,102.35,102.35,0,0,1,1.2,10.69ZM48.13,88a2.42,2.42,0,0,0-1.4-.06A1.25,1.25,0,0,1,45,87.45c-.09-.11-.21-.3-.31-.29-2.14.18-2.65-2.53-4.66-2.65-.23,0-.52-.61-.64-1-.49-1.47-1.1-2.8-2.69-3.41a1.26,1.26,0,0,1-.56-.75c-.38-1.2-.71-2.42-1.17-4a26.38,26.38,0,0,0,11.32,3.25c4.62.35,9.3.68,13.59-1.6a9.17,9.17,0,0,0,3.58-3c2-3.38,3.66-7,5.41-10.49.63-1.26,1-2.63,1.69-3.88a2.67,2.67,0,0,1,1.36-1.2,1.58,1.58,0,0,1,1.79,1c1.45,4.18,2,4.47,3.48,10.31a17.94,17.94,0,0,1,.65,3.48c-.1,3.12-.82,4-3.9,4.28a18.71,18.71,0,0,1-8.36-.85c-.77-.28-1.6-.84-1.8.65,0,.22-.71.4-1.11.51-3.76,1-7.12,2.65-9.49,5.88a16.11,16.11,0,0,0-1.56,2.45A2.87,2.87,0,0,1,48.13,88Zm28.73,9.28c-.4,1.24-1.8,1.6-3.26,1.19-.5-.14-1-.32-1.59-.51a24.84,24.84,0,0,0,0-3.45c-.23-1.72-1-2.16-2.74-2-1.34.11-2.7,0-4,.07a5.47,5.47,0,0,0-3.53,1.58c-1.24,1-2,3.2-4.06,2.86a7.54,7.54,0,0,1-3.92-1.43c-1.07-1.05-.66-2.76.07-4.1A1.88,1.88,0,0,1,55,90.58c3.89-.18,7.78-.38,11.66-.35,3.49,0,7,.33,10.47.57.32,0,.91.58.88.8A41.25,41.25,0,0,1,76.86,97.24ZM82.07,86.9c-.55-.61-1.11-.94-1.21-1.38-.74-3.21-2.26-5.68-5.78-6.53a4.49,4.49,0,0,0,3.58-3.22c1.47.38,2.92.85,4.29,1.1s2.79.33,4.55.52Zm23.1-34c-.9,1.65-1.08,3.69-1.52,5.57-.69,2.93-1.27,5.88-2,8.8-1.12,4.42-4.11,6.87-8.45,7.94a26.33,26.33,0,0,1-13-.23l-1.32-.34a17.14,17.14,0,0,0-.64-5c-1-3.25-3.35-10.33-3.59-10.75-.6-1-1.26-2.1-2.65-1.94s-2.08,1.26-2.64,2.44c-1.89,4-3.9,7.94-5.67,12-1.89,4.33-5.46,5.66-9.73,6-1,.06-2,0-3.06,0-5.11-.08-10.11-.78-14.69-3.22a7.12,7.12,0,0,1-4-5.57c-.7-5-1.68-10-1-15.1.13-1-.49-1.11-1.25-1.17-2.62-.18-5.25-.35-7.86-.6a3.25,3.25,0,0,1-1.66-.7C18.18,49,15.86,48.11,13,49.72c-.56.32-1.92.47-2.16,0-.36-.77-.46-3.65.39-3.92a16.83,16.83,0,0,1,8.15-1c3.85.56,7.68,1.27,11.52,1.85a12.87,12.87,0,0,0,2.48,0,100.84,100.84,0,0,1,31,3c4.42,1.18,8.35.08,12.45-.91a90,90,0,0,1,18.71-2.94,81,81,0,0,1,10.17.77,1.28,1.28,0,0,1,.8,1A13.45,13.45,0,0,1,105.17,52.86Z"/><path class="cls-1" d="M64.84,53.37a18.12,18.12,0,0,0-4.3-1.76c-4.47-.9-13.52-2.11-13.55-2a35.57,35.57,0,0,0-4.51.23c-3.42.6-6,1.3-6.77,6a39.9,39.9,0,0,0-.45,10c.52,4.86,1.67,6,6.33,7.41a31.5,31.5,0,0,0,13.15.87,10.25,10.25,0,0,0,7.77-5.28A29.21,29.21,0,0,0,66.69,57,3.33,3.33,0,0,0,64.84,53.37Z"/><path class="cls-1" d="M97.86,49.29A9.31,9.31,0,0,0,96.13,49,37.62,37.62,0,0,0,79.3,51.82a4.18,4.18,0,0,0-3,4.49,59,59,0,0,0,2.38,12.11,6.1,6.1,0,0,0,4.08,3.84c3.7,1.12,7.2.49,10.76-.57a8.49,8.49,0,0,0,6.23-6.53,43.1,43.1,0,0,0,1.3-8.58C101.07,51.37,100.42,50,97.86,49.29Zm-.2,18.12c-1.06,2.16-3.24,2.73-5.32,3.5,0-2.36,0-4.54,0-6.72a2.83,2.83,0,0,1,.19-1.13c1.95-4,2.71-8.39,3.36-12.86,2.81.11,4.15,1.18,4.26,3.75A27.38,27.38,0,0,1,97.66,67.41Z"/></svg>