<svg id="Layer_1" data-name="Layer 1" xmlns="http://www.w3.org/2000/svg" viewBox="0 0 86.12 101"><defs><style>.cls-1{fill:#f7f1ed;}</style></defs><path class="cls-1" d="M49.8,73.53c-.48.3-1,3-1.1,5.81,1.07.12,2.21.25,3.39.36C51.46,76.57,50.45,73.79,49.8,73.53Z"/><path class="cls-1" d="M44.29,73.14c-.45.29-.95,2.81-1,5.45.86.13,2,.3,3.21.46C45.88,76.05,44.92,73.39,44.29,73.14Z"/><path class="cls-1" d="M43.35,83.94a8.1,8.1,0,0,0,1.29-3.11l-2.19-.34A7.75,7.75,0,0,0,43.35,83.94Z"/><path class="cls-1" d="M48.92,85.37c.38,0,1.19-1.58,1.68-3.8-1.23-.13-2.41-.27-3.48-.4C47.65,83.47,48.46,85.23,48.92,85.37Z"/><path class="cls-1" d="M85.85,40.85a10.45,10.45,0,0,0-3.67-6.56c-.24-6-1.63-11.72-7.2-19.24C68.55,6.37,53.93-.64,40,.05,27.36.67,17.9,4.32,9.1,14.92,1.51,24.05-.72,38.83.19,48c.65,6.46,1.73,12.87,6.56,17.09A21,21,0,0,0,10,67.48a123.37,123.37,0,0,0,13.09-.2c8.4-.43,13.23-.58,14.84,1.14,1.74,1.87,2.87,5.59,3.47,8.09.27-2.55,1-5.36,3-5.36,1.3,0,2.26,1.42,3,3.26.45-1.61,1.21-2.83,2.49-2.87S52.16,73,52.9,75c.55-2,1.57-3.73,3.49-3.81s3.24,1.73,4,3.84c.57-2,1.61-3.69,3.48-3.86a2.75,2.75,0,0,1,2.18.77,5.18,5.18,0,0,1,1.24,2.13c.65-2,1.6-3.51,3-3.51a2.08,2.08,0,0,1,1.52.68,5.15,5.15,0,0,1,1.08,2.39,42.22,42.22,0,0,0,1.17-6.31c.06-.55,1-.85,1.61-.79s.44.45.38,1A45,45,0,0,1,73.2,79.18l-.11.27-.24.17a10.76,10.76,0,0,1-.95.55c-.54,2.49-1.88,7.19-4.27,7.19-1.15,0-1.89-.86-2.37-2-.66,1.66-1.63,3.05-3,3.05h0c-1.38,0-2.32-1.35-2.94-2.94-.55,1.44-1.41,2.72-2.74,2.93l-.33,0C54.46,88.44,53,86.19,52,84c-.6,1.71-1.57,3.37-3.09,3.37s-2.49-1.71-3.14-3.57c-.62,1.33-1.5,2.38-2.74,2.16-2-.35-2.49-3.73-2.63-5.82l-.17,0c-.31,1.71-1,4-2.49,4.33a1.88,1.88,0,0,1-.46.06c-.83,0-1.65-.59-2.44-1.75C32.45,79.21,32.05,71.57,32,69c-2.6-.05-5.9.12-8.82.27l-1.1,0c1.92.82.09,16,4.35,19.77,7.23,6.47,20.93,11.79,31.18,11.9a15,15,0,0,0,11.76-5.56c3.72-4.6,4.66-10.9,5.14-13.31.19-1.07,3-9.93,3.25-13a7.63,7.63,0,0,0,4.52-3.35c1.94-3.16,1.12-11.32,1.12-11.32C84.51,50.79,86.91,47.23,85.85,40.85ZM26,37.85C22.66,44.42,23,50.41,23.17,54.79c.15,3,.26,5.18-1.08,6.26-2.58,2.06-12.77,2.54-12.77,2s.4-.93,1.25-1.08c2.23-.38,10.09-4.53,10-6.58-.22-4.34-.3-9.81,3-16.31.6-1.18,2.51-3.52,3-3.27S26.28,37.36,26,37.85ZM49.67,58.37C44.16,61.72,33.79,59.88,31,55.25c-2.49-4.17-.87-14,4.28-16.58C40.7,36,49,35.51,53.28,38c2.26,1.32,2.55,4.84,2.55,6.39C55.83,48.81,53.91,55.79,49.67,58.37Zm11,4.82c-2.75,0-5.95-1.2-4.8-4.72,1.21-3.71,4-8.31,6.73-8,2.26.25,3.66,4.36,4.14,8.55C67.23,62.91,63.92,63.21,60.72,63.19Zm15.86-4.93c-2.81.17-4.29,0-5.77-.79a8.66,8.66,0,0,1-3.74-4.35,29.62,29.62,0,0,1-2.59-8.67C64,38.73,67.16,37,69.7,36.82c5.25-.44,13.24-1.14,13.61,6.91C83.65,51.08,80.58,58,76.58,58.26Z"/><path class="cls-1" d="M70.31,72.55c-.65.28-1.55,3.36-2,6.81a11.12,11.12,0,0,0,3-1.13C71.36,75.26,70.83,72.74,70.31,72.55Z"/><path class="cls-1" d="M56.25,86.44c.77-.12,1.52-2.23,1.86-4.37-1.63,0-3.27-.14-4.85-.26C54.35,84.57,55.68,86.53,56.25,86.44Z"/><path class="cls-1" d="M65.49,79.84h0l.64-.08c0-2.24-.38-5.4-1.41-6.38a.77.77,0,0,0-.63-.23c-1.53.14-2.26,3.92-2.35,6.94,1.24,0,2.44-.1,3.56-.23A.55.55,0,0,1,65.49,79.84Z"/><path class="cls-1" d="M67.63,85.36c.51-.15,1.36-2.07,2-4.33a22.68,22.68,0,0,1-3.13.66C66.68,83.75,67.27,85.36,67.63,85.36Z"/><path class="cls-1" d="M59.22,80.1h.4c-.47-3.24-1.66-7-3.14-6.93s-2.15,3.76-2.17,6.7c1.61.11,3.26.2,4.89.22Z"/><path class="cls-1" d="M62.25,86.43c.49,0,1.38-2,1.94-4.49-1.21.09-2.47.14-3.76.15C60.92,84.49,61.78,86.43,62.25,86.43Z"/></svg>