<svg id="Layer_1" data-name="Layer 1" xmlns="http://www.w3.org/2000/svg" viewBox="0 0 95.76 65.98"><defs><style>.cls-1{fill:#f7f1ed;}.cls-2{fill:#30354f;}</style></defs><path class="cls-1" d="M.5,64.61A59.57,59.57,0,0,0,25.69,49.52a26.82,26.82,0,0,1-8-18.71C17.66,13.79,35.14,0,56.71,0S95.76,13.79,95.76,30.81,78.28,61.62,56.71,61.62A47,47,0,0,1,36.55,57.2C24.05,63.8,9,65.54.74,66A.7.7,0,0,1,.5,64.61Z"/><polygon class="cls-2" points="73.87 17.97 70.79 14.89 57.38 28.3 43.97 14.89 40.89 17.97 54.3 31.38 40.89 44.79 43.97 47.87 57.38 34.46 70.79 47.87 73.87 44.79 60.46 31.38 73.87 17.97"/></svg>