<svg id="Layer_1" data-name="Layer 1" xmlns="http://www.w3.org/2000/svg" viewBox="0 0 95.76 65.98"><defs><style>.cls-1{fill:#30354f;}</style></defs><path class="cls-1" d="M56.71,2C77.14,2,93.76,14.92,93.76,30.81S77.14,59.62,56.71,59.62a45,45,0,0,1-19.3-4.23,2,2,0,0,0-.86-.19,2.07,2.07,0,0,0-.94.23C27.27,59.84,17.68,62,10,63.09A59.88,59.88,0,0,0,27.13,50.92a2,2,0,0,0,0-2.79c-4.89-5-7.47-11-7.47-17.32C19.66,14.92,36.28,2,56.71,2m0-2c-21.57,0-39,13.79-39,30.81a26.82,26.82,0,0,0,8,18.71A59.57,59.57,0,0,1,.5,64.61.7.7,0,0,0,.69,66H.74C9,65.54,24.05,63.8,36.55,57.2a47,47,0,0,0,20.16,4.42c21.57,0,39.05-13.79,39.05-30.81S78.28,0,56.71,0Z"/><path class="cls-1" d="M53.65,38.4v-.29a15.42,15.42,0,0,1,.58-4.52,6.69,6.69,0,0,1,1.55-2.71A11.77,11.77,0,0,1,58.2,29a9.65,9.65,0,0,0,1.65-1.3A5.26,5.26,0,0,0,61,26,4.86,4.86,0,0,0,61.44,24a4.22,4.22,0,0,0-.64-2.35,4.4,4.4,0,0,0-1.7-1.53,5.15,5.15,0,0,0-2.36-.54,5.45,5.45,0,0,0-2.25.48,4.38,4.38,0,0,0-1.77,1.52,5.22,5.22,0,0,0-.81,2.65H47.27a8.71,8.71,0,0,1,1.39-4.65,8.13,8.13,0,0,1,3.4-2.87,11.89,11.89,0,0,1,9.59.06,7.9,7.9,0,0,1,3.28,2.92A8.06,8.06,0,0,1,66.1,24a8.33,8.33,0,0,1-.54,3.08A7.49,7.49,0,0,1,64,29.53a10.19,10.19,0,0,1-2.36,1.9,10.08,10.08,0,0,0-2.09,1.68,5.13,5.13,0,0,0-1.17,2.06,10.49,10.49,0,0,0-.4,2.94v.29ZM56,47.69a3,3,0,1,1,2.14-5.2A2.87,2.87,0,0,1,59,44.63a2.92,2.92,0,0,1-.42,1.54,3.34,3.34,0,0,1-1.1,1.11A3,3,0,0,1,56,47.69Z"/></svg>