<?xml version="1.0" encoding="utf-8"?>
<!-- Generator: Adobe Illustrator 26.3.1, SVG Export Plug-In . SVG Version: 6.00 Build 0)  -->
<svg version="1.1" id="Layer_1" xmlns="http://www.w3.org/2000/svg" xmlns:xlink="http://www.w3.org/1999/xlink" x="0px" y="0px"
	 viewBox="0 0 95.8 66" style="enable-background:new 0 0 95.8 66;" xml:space="preserve">
<style type="text/css">
	.st0{fill:#F7F1ED;}
	.st1{fill:#30354F;}
</style>
<path class="st0" d="M93.7,30.8c0,15.9-16.6,28.8-37,28.8c-6.7,0-13.3-1.4-19.3-4.2c-0.3-0.1-0.6-0.2-0.9-0.2
	c-0.3,0-0.6,0.1-0.9,0.2C27.3,59.8,17.7,62,10,63.1c6.4-3,12.2-7.1,17.1-12.2c0.8-0.8,0.8-2,0-2.8c-4.9-5-7.5-11-7.5-17.3
	C19.6,14.9,36.2,2,56.7,2S93.7,14.9,93.7,30.8z"/>
<polygon class="st1" points="73.8,17.9 70.7,14.8 57.3,28.2 43.9,14.8 40.8,17.9 54.2,31.3 40.8,44.7 43.9,47.8 57.3,34.4 
	70.7,47.8 73.8,44.7 60.3,31.3 "/>
</svg>
