<svg id="Layer_1" data-name="Layer 1" xmlns="http://www.w3.org/2000/svg" viewBox="0 0 100.4 34.77"><defs><style>.cls-1{fill:#30354f;}</style></defs><path class="cls-1" d="M99,4.48c-5.59,1-11.18,2-16.73,3.28-2.67.6-5.21,1.75-7.87,2.46-.86.23-2.41.73-2.84-.25a4.62,4.62,0,0,1,.24-2c.1-.66.72-1.31.4-2-.48-.38-1.63-.12-2.29.17a31,31,0,0,0-3.22,1.91,5.54,5.54,0,0,1-1.59.66c.27-.85.91-1.16,1.31-1.74s.85-1.28.68-1.73S65.86,4.83,65.35,5c-1.6.5-3.17,1.14-4.72,1.8-1.34.56-2.65,1.22-4,1.84-.48.17-1,.47-.27-.37a8.48,8.48,0,0,0,1.56-1.74,3.28,3.28,0,0,0,.51-2.38c-.23-.52-1.39-.69-2.17-.89s-1.46,0-2-.29c-1.82-1.15-3.6-.69-5.4-.11-.69.23-1.35.52-2,.78-.78-2.36-1.46-2.73-3.78-2a33.67,33.67,0,0,0-3.64,1.51c-.79.36-1.54.82-2.53,1.36a6.47,6.47,0,0,0,.2-1.1c0-.76.19-1.94-.18-2.16a3,3,0,0,0-2.36,0,37.85,37.85,0,0,0-4.66,2.38c-1.7,1-3.34,2.08-5,3.14-.44.29-.63.24-.28-.27L28.22.54c.07-.22-.26-.79-.61-.42s-1.85,1.79-3,2.69a43.61,43.61,0,0,1-8.38,5.54c-1.65.85-3.83,1.35-4.43,1-.66-.8.23-2.69.81-3.85S14.5,2.51,15.36,1c.41-.6-.3-1-.88-.24a43.22,43.22,0,0,0-4.3,6.44C9,9.5,9.84,11.28,12.74,11.26a6.19,6.19,0,0,0,2.85-.59C18.1,9.3,20.51,7.76,23,6.29c1-.56.94-.7.72-.14A17.71,17.71,0,0,1,20,10.36,76.49,76.49,0,0,0,4.26,25.43,29.19,29.19,0,0,0,.11,32.84c-.17.48-.16,1.46.14,1.66a2.23,2.23,0,0,0,1.86.12,11.47,11.47,0,0,0,2.67-1.69C10.65,28.1,15,22,19,15.68c1.13-1.77,2.13-3.8,3.71-5.08C25.79,8.15,29.19,6.12,32.49,4a30.16,30.16,0,0,1,3-1.56C35,5,33.42,6.67,31.67,8.26a99.75,99.75,0,0,0-9.06,8.6,129.38,129.38,0,0,0-8,11.21,2.61,2.61,0,0,0-.37,2c0,.38.4.36.6.17a24.07,24.07,0,0,0,2-1.86C21.47,23.09,26.28,18,30.52,12.5A26.78,26.78,0,0,1,42.7,3.3c.7-.26,1.84-.73,2.2-.56.09.17.27.68,0,.89-1.1,1-1.9,1.79-3.07,2.76C40,7.91,38.1,9.29,36.29,10.82c-.51.43-1.21,1.38-1.11,1.77s.41.49.72.41a6.13,6.13,0,0,0,1.54-.87c2-1.55,3.75-3.34,5.83-4.69a70.2,70.2,0,0,1,7.24-3.81c.34-.17,1,.23,1.16.38A10.45,10.45,0,0,0,49,5.27a21.64,21.64,0,0,0-4.74,3.6c-.74.82-1.29,2.17-.94,2.74s2.37.32,3.44-.11a14,14,0,0,0,7.22-5.62c.66-1.06,1.39-1.18,2.7-.64A23.79,23.79,0,0,0,53.83,8a5.94,5.94,0,0,0-1.13,2.77c.26.7,1.46.76,2.95.1l.69-.27,6-2.56c0,.37,0,.55-.05.73-.1.79-.78,2-.32,2.36a4.1,4.1,0,0,0,2.72-.2,46.92,46.92,0,0,0,4.51-2.49C70,11.78,71.88,12.85,75,12c1-.28,1.9-.61,2.86-.88,3.48-.95,6.94-2,10.48-2.77S95.47,7.25,99,6.65a2.22,2.22,0,0,0,1.32-1.39C100.66,4.09,99.39,4.41,99,4.48ZM18.43,14.65c-4.72,7.1-9.26,14.12-16.63,18.9-.63.27-.81-.24-.65-.7a22.24,22.24,0,0,1,2.27-4C7.14,23.57,12,19.34,16.77,15.1c.37-.32.74-.67,1.09-.93C19.41,13,19.43,13.17,18.43,14.65Zm-.19,10.06c.06-.6,6.78-9.06,10-11.56C28.38,13.38,18.83,24.17,18.24,24.71ZM50.68,7.16a11,11,0,0,1-3.75,2.47c-1.13.36-1,0-.45-.58a19,19,0,0,1,4.15-2.71C52,5.82,51.63,6.18,50.68,7.16Z"/></svg>